<mxfile host="Electron" agent="Mozilla/5.0 (Windows NT 10.0; Win64; x64) AppleWebKit/537.36 (KHTML, like Gecko) draw.io/26.0.9 Chrome/128.0.6613.186 Electron/32.2.5 Safari/537.36" version="26.0.9">
  <diagram name="Page-1" id="FLcoFJT1ndNayjJ6mwNP">
    <mxGraphModel dx="1985" dy="1393" grid="1" gridSize="10" guides="1" tooltips="1" connect="1" arrows="1" fold="1" page="1" pageScale="1" pageWidth="850" pageHeight="1100" math="0" shadow="0">
      <root>
        <mxCell id="0" />
        <mxCell id="1" parent="0" />
        <mxCell id="Yg4XbK3DLpY8OxS6Rn-w-1" value="" style="ellipse;html=1;shape=startState;fillColor=#000000;strokeColor=#ff0000;" parent="1" vertex="1">
          <mxGeometry x="328" y="201" width="30" height="30" as="geometry" />
        </mxCell>
        <mxCell id="Yg4XbK3DLpY8OxS6Rn-w-5" value="" style="edgeStyle=orthogonalEdgeStyle;rounded=0;orthogonalLoop=1;jettySize=auto;html=1;" parent="1" source="Yg4XbK3DLpY8OxS6Rn-w-3" target="Yg4XbK3DLpY8OxS6Rn-w-4" edge="1">
          <mxGeometry relative="1" as="geometry" />
        </mxCell>
        <mxCell id="Yg4XbK3DLpY8OxS6Rn-w-11" value="" style="edgeStyle=orthogonalEdgeStyle;rounded=0;orthogonalLoop=1;jettySize=auto;html=1;" parent="1" source="Yg4XbK3DLpY8OxS6Rn-w-4" target="Yg4XbK3DLpY8OxS6Rn-w-10" edge="1">
          <mxGeometry relative="1" as="geometry" />
        </mxCell>
        <mxCell id="Yg4XbK3DLpY8OxS6Rn-w-4" value=" User selects &quot;Display All&amp;nbsp; Students&#39; Transcripts&quot; option" style="html=1;align=center;verticalAlign=top;rounded=1;absoluteArcSize=1;arcSize=10;dashed=0;whiteSpace=wrap;fillColor=#d5e8d4;strokeColor=#82b366;" parent="1" vertex="1">
          <mxGeometry x="270.5" y="331" width="145" height="50" as="geometry" />
        </mxCell>
        <mxCell id="Yg4XbK3DLpY8OxS6Rn-w-6" value="" style="edgeStyle=orthogonalEdgeStyle;html=1;verticalAlign=bottom;endArrow=open;endSize=8;strokeColor=#ff0000;rounded=0;" parent="1" source="Yg4XbK3DLpY8OxS6Rn-w-1" target="Yg4XbK3DLpY8OxS6Rn-w-3" edge="1">
          <mxGeometry relative="1" as="geometry">
            <mxPoint x="343" y="291" as="targetPoint" />
            <mxPoint x="343" y="231" as="sourcePoint" />
          </mxGeometry>
        </mxCell>
        <mxCell id="Yg4XbK3DLpY8OxS6Rn-w-3" value="Display Main Menu" style="html=1;align=center;verticalAlign=top;rounded=1;absoluteArcSize=1;arcSize=10;dashed=0;whiteSpace=wrap;fillColor=#d5e8d4;strokeColor=#82b366;" parent="1" vertex="1">
          <mxGeometry x="273" y="271" width="140" height="30" as="geometry" />
        </mxCell>
        <mxCell id="Yg4XbK3DLpY8OxS6Rn-w-13" value="" style="edgeStyle=orthogonalEdgeStyle;rounded=0;orthogonalLoop=1;jettySize=auto;html=1;" parent="1" source="Yg4XbK3DLpY8OxS6Rn-w-10" target="Yg4XbK3DLpY8OxS6Rn-w-12" edge="1">
          <mxGeometry relative="1" as="geometry" />
        </mxCell>
        <mxCell id="Yg4XbK3DLpY8OxS6Rn-w-10" value=" Retrieve student records for&amp;nbsp;current grade (via ResultService)" style="html=1;align=center;verticalAlign=top;rounded=1;absoluteArcSize=1;arcSize=10;dashed=0;whiteSpace=wrap;fillColor=#d5e8d4;strokeColor=#82b366;" parent="1" vertex="1">
          <mxGeometry x="270.5" y="411" width="145" height="50" as="geometry" />
        </mxCell>
        <mxCell id="Yg4XbK3DLpY8OxS6Rn-w-15" value="" style="edgeStyle=orthogonalEdgeStyle;rounded=0;orthogonalLoop=1;jettySize=auto;html=1;" parent="1" source="Yg4XbK3DLpY8OxS6Rn-w-12" target="Yg4XbK3DLpY8OxS6Rn-w-14" edge="1">
          <mxGeometry relative="1" as="geometry" />
        </mxCell>
        <mxCell id="Yg4XbK3DLpY8OxS6Rn-w-16" value="No" style="edgeLabel;html=1;align=center;verticalAlign=middle;resizable=0;points=[];" parent="Yg4XbK3DLpY8OxS6Rn-w-15" vertex="1" connectable="0">
          <mxGeometry x="-0.2269" relative="1" as="geometry">
            <mxPoint as="offset" />
          </mxGeometry>
        </mxCell>
        <mxCell id="Yg4XbK3DLpY8OxS6Rn-w-18" value="" style="edgeStyle=orthogonalEdgeStyle;rounded=0;orthogonalLoop=1;jettySize=auto;html=1;" parent="1" source="Yg4XbK3DLpY8OxS6Rn-w-12" target="Yg4XbK3DLpY8OxS6Rn-w-17" edge="1">
          <mxGeometry relative="1" as="geometry" />
        </mxCell>
        <mxCell id="Yg4XbK3DLpY8OxS6Rn-w-19" value="Yes" style="edgeLabel;html=1;align=center;verticalAlign=middle;resizable=0;points=[];" parent="Yg4XbK3DLpY8OxS6Rn-w-18" vertex="1" connectable="0">
          <mxGeometry x="-0.0966" relative="1" as="geometry">
            <mxPoint as="offset" />
          </mxGeometry>
        </mxCell>
        <mxCell id="Yg4XbK3DLpY8OxS6Rn-w-12" value="&lt;div&gt;&lt;br&gt;&lt;/div&gt;Are there any&amp;nbsp;&lt;div&gt;student records?&lt;/div&gt;" style="rhombus;whiteSpace=wrap;html=1;verticalAlign=top;rounded=1;arcSize=10;dashed=0;fillColor=#d5e8d4;strokeColor=#82b366;" parent="1" vertex="1">
          <mxGeometry x="279.25" y="491" width="127.5" height="70" as="geometry" />
        </mxCell>
        <mxCell id="Yg4XbK3DLpY8OxS6Rn-w-22" style="edgeStyle=orthogonalEdgeStyle;rounded=0;orthogonalLoop=1;jettySize=auto;html=1;entryX=1;entryY=0.5;entryDx=0;entryDy=0;exitX=0.435;exitY=1.005;exitDx=0;exitDy=0;exitPerimeter=0;" parent="1" source="Yg4XbK3DLpY8OxS6Rn-w-14" target="Yg4XbK3DLpY8OxS6Rn-w-20" edge="1">
          <mxGeometry relative="1" as="geometry" />
        </mxCell>
        <mxCell id="Yg4XbK3DLpY8OxS6Rn-w-14" value="Diplay&lt;div&gt;&quot;No records found!&quot; mesage&lt;/div&gt;" style="whiteSpace=wrap;html=1;verticalAlign=top;rounded=1;arcSize=10;dashed=0;fillColor=#d5e8d4;strokeColor=#82b366;" parent="1" vertex="1">
          <mxGeometry x="490.5" y="496" width="120" height="60" as="geometry" />
        </mxCell>
        <mxCell id="Yg4XbK3DLpY8OxS6Rn-w-21" value="" style="edgeStyle=orthogonalEdgeStyle;rounded=0;orthogonalLoop=1;jettySize=auto;html=1;" parent="1" source="Yg4XbK3DLpY8OxS6Rn-w-17" target="Yg4XbK3DLpY8OxS6Rn-w-20" edge="1">
          <mxGeometry relative="1" as="geometry" />
        </mxCell>
        <mxCell id="Yg4XbK3DLpY8OxS6Rn-w-17" value="&lt;div style=&quot;text-align: left;&quot;&gt;&lt;span style=&quot;background-color: transparent; color: light-dark(rgb(0, 0, 0), rgb(255, 255, 255));&quot;&gt;For each student in the list:&amp;nbsp;&lt;/span&gt;&lt;/div&gt;&lt;div style=&quot;text-align: left;&quot;&gt;&amp;nbsp; &amp;nbsp; - Create Transcript&lt;/div&gt;&lt;div style=&quot;text-align: left;&quot;&gt;&amp;nbsp; &amp;nbsp; - Fromat transcript data&lt;/div&gt;&lt;div style=&quot;text-align: left;&quot;&gt;&amp;nbsp; &amp;nbsp; - Diplay transcript&lt;/div&gt;&lt;div&gt;&lt;br&gt;&lt;/div&gt;" style="whiteSpace=wrap;html=1;verticalAlign=top;rounded=1;arcSize=10;dashed=0;fillColor=#d5e8d4;strokeColor=#82b366;" parent="1" vertex="1">
          <mxGeometry x="265.5" y="601" width="155" height="70" as="geometry" />
        </mxCell>
        <mxCell id="Yg4XbK3DLpY8OxS6Rn-w-24" style="edgeStyle=orthogonalEdgeStyle;rounded=0;orthogonalLoop=1;jettySize=auto;html=1;exitX=0.5;exitY=1;exitDx=0;exitDy=0;entryX=0.5;entryY=0;entryDx=0;entryDy=0;" parent="1" source="Yg4XbK3DLpY8OxS6Rn-w-20" target="Yg4XbK3DLpY8OxS6Rn-w-23" edge="1">
          <mxGeometry relative="1" as="geometry" />
        </mxCell>
        <mxCell id="Yg4XbK3DLpY8OxS6Rn-w-20" value="Return to Main Menu" style="whiteSpace=wrap;html=1;verticalAlign=top;rounded=1;arcSize=10;dashed=0;fillColor=#d5e8d4;strokeColor=#82b366;" parent="1" vertex="1">
          <mxGeometry x="268" y="711" width="150" height="30" as="geometry" />
        </mxCell>
        <mxCell id="Yg4XbK3DLpY8OxS6Rn-w-23" value="" style="ellipse;html=1;shape=endState;fillColor=#000000;strokeColor=#ff0000;" parent="1" vertex="1">
          <mxGeometry x="328" y="771" width="30" height="30" as="geometry" />
        </mxCell>
      </root>
    </mxGraphModel>
  </diagram>
</mxfile>
